<svg width="13" height="13" viewBox="0 0 13 13" fill="none" xmlns="http://www.w3.org/2000/svg">
<path d="M6.24421 4.16296C5.09734 4.16296 4.1614 5.0989 4.1614 6.24578C4.1614 7.39265 5.09734 8.32859 6.24421 8.32859C7.39109 8.32859 8.32703 7.39265 8.32703 6.24578C8.32703 5.0989 7.39109 4.16296 6.24421 4.16296ZM12.4911 6.24578C12.4911 5.38328 12.4989 4.52859 12.4505 3.66765C12.402 2.66765 12.1739 1.78015 11.4427 1.0489C10.7098 0.31609 9.8239 0.0895272 8.8239 0.0410897C7.9614 -0.00734777 7.10671 0.000464756 6.24578 0.000464756C5.38328 0.000464756 4.52859 -0.00734777 3.66765 0.0410897C2.66765 0.0895272 1.78015 0.317652 1.0489 1.0489C0.31609 1.78171 0.0895272 2.66765 0.0410897 3.66765C-0.00734777 4.53015 0.000464756 5.38484 0.000464756 6.24578C0.000464756 7.10671 -0.00734777 7.96296 0.0410897 8.8239C0.0895272 9.8239 0.317652 10.7114 1.0489 11.4427C1.78171 12.1755 2.66765 12.402 3.66765 12.4505C4.53015 12.4989 5.38484 12.4911 6.24578 12.4911C7.10828 12.4911 7.96296 12.4989 8.8239 12.4505C9.8239 12.402 10.7114 12.1739 11.4427 11.4427C12.1755 10.7098 12.402 9.8239 12.4505 8.8239C12.5005 7.96296 12.4911 7.10828 12.4911 6.24578ZM6.24421 9.45046C4.47078 9.45046 3.03953 8.01921 3.03953 6.24578C3.03953 4.47234 4.47078 3.04109 6.24421 3.04109C8.01765 3.04109 9.4489 4.47234 9.4489 6.24578C9.4489 8.01921 8.01765 9.45046 6.24421 9.45046ZM9.58015 3.65828C9.16609 3.65828 8.83171 3.3239 8.83171 2.90984C8.83171 2.49578 9.16609 2.1614 9.58015 2.1614C9.99422 2.1614 10.3286 2.49578 10.3286 2.90984C10.3287 3.00816 10.3094 3.10554 10.2719 3.1964C10.2343 3.28726 10.1792 3.36982 10.1097 3.43934C10.0401 3.50886 9.95757 3.56399 9.86671 3.60156C9.77585 3.63913 9.67847 3.6584 9.58015 3.65828Z" fill="#3D3D3D"/>
</svg>
