<svg width="14" height="10" viewBox="0 0 14 10" fill="none" xmlns="http://www.w3.org/2000/svg">
<path d="M13.7078 1.53281C13.6281 1.236 13.4719 0.96532 13.2547 0.747869C13.0375 0.530418 12.767 0.373821 12.4703 0.29375C11.3781 5.96046e-08 7 0 7 0C7 0 2.62187 -5.96046e-08 1.52969 0.292187C1.23284 0.371998 0.962226 0.528508 0.745009 0.746C0.527792 0.963491 0.371624 1.23431 0.292187 1.53125C-5.96046e-08 2.625 0 4.90625 0 4.90625C0 4.90625 -5.96046e-08 7.1875 0.292187 8.27969C0.453125 8.88281 0.928125 9.35781 1.52969 9.51875C2.62187 9.8125 7 9.8125 7 9.8125C7 9.8125 11.3781 9.8125 12.4703 9.51875C13.0734 9.35781 13.5469 8.88281 13.7078 8.27969C14 7.1875 14 4.90625 14 4.90625C14 4.90625 14 2.625 13.7078 1.53281ZM5.60938 7V2.8125L9.23438 4.89062L5.60938 7Z" fill="#3D3D3D"/>
</svg>
