<svg width="42" height="42" viewBox="0 0 42 42" fill="none" xmlns="http://www.w3.org/2000/svg">
<path d="M31.6898 21.4667C31.6213 21.4667 31.5591 21.4667 31.4907 21.4667V21.4604C31.4222 21.4604 31.3476 21.4604 31.2729 21.4604C25.3431 21.4667 20.5333 16.6569 20.5333 10.7271C20.5333 10.6524 20.5333 10.584 20.5333 10.5093H20.5271C20.5271 10.4284 20.5271 10.3476 20.5271 10.2667C20.5333 4.59822 15.9351 0 10.2667 0C4.59822 0 0 4.59822 0 10.2667C0 15.9351 4.59822 20.5333 10.2667 20.5333C10.3662 20.5333 10.4658 20.5333 10.5716 20.5271C10.6462 20.5271 10.7147 20.5271 10.7893 20.5271C16.4516 20.5271 21.0933 24.9076 21.4978 30.464C21.448 30.8809 21.4169 31.304 21.4169 31.7333C21.4169 37.4018 26.0151 42 31.6836 42C37.352 42 41.9502 37.4018 41.9502 31.7333C41.9502 26.0649 37.3582 21.4667 31.6898 21.4667Z" fill="white"/>
<path d="M35 14C38.866 14 42 10.866 42 7C42 3.13401 38.866 0 35 0C31.134 0 28 3.13401 28 7C28 10.866 31.134 14 35 14Z" fill="#4FB400"/>
</svg>
