<svg width="24" height="24" viewBox="0 0 24 24" fill="none" xmlns="http://www.w3.org/2000/svg">
<path d="M12.2442 10.163C11.0973 10.163 10.1614 11.0989 10.1614 12.2458C10.1614 13.3927 11.0973 14.3286 12.2442 14.3286C13.3911 14.3286 14.327 13.3927 14.327 12.2458C14.327 11.0989 13.3911 10.163 12.2442 10.163ZM18.4911 12.2458C18.4911 11.3833 18.4989 10.5286 18.4505 9.66765C18.402 8.66765 18.1739 7.78015 17.4427 7.0489C16.7098 6.31609 15.8239 6.08953 14.8239 6.04109C13.9614 5.99265 13.1067 6.00046 12.2458 6.00046C11.3833 6.00046 10.5286 5.99265 9.66765 6.04109C8.66765 6.08953 7.78015 6.31765 7.0489 7.0489C6.31609 7.78171 6.08953 8.66765 6.04109 9.66765C5.99265 10.5302 6.00046 11.3848 6.00046 12.2458C6.00046 13.1067 5.99265 13.963 6.04109 14.8239C6.08953 15.8239 6.31765 16.7114 7.0489 17.4427C7.78171 18.1755 8.66765 18.402 9.66765 18.4505C10.5302 18.4989 11.3848 18.4911 12.2458 18.4911C13.1083 18.4911 13.963 18.4989 14.8239 18.4505C15.8239 18.402 16.7114 18.1739 17.4427 17.4427C18.1755 16.7098 18.402 15.8239 18.4505 14.8239C18.5005 13.963 18.4911 13.1083 18.4911 12.2458ZM12.2442 15.4505C10.4708 15.4505 9.03953 14.0192 9.03953 12.2458C9.03953 10.4723 10.4708 9.04109 12.2442 9.04109C14.0177 9.04109 15.4489 10.4723 15.4489 12.2458C15.4489 14.0192 14.0177 15.4505 12.2442 15.4505ZM15.5802 9.65828C15.1661 9.65828 14.8317 9.3239 14.8317 8.90984C14.8317 8.49578 15.1661 8.1614 15.5802 8.1614C15.9942 8.1614 16.3286 8.49578 16.3286 8.90984C16.3287 9.00816 16.3094 9.10554 16.2719 9.1964C16.2343 9.28726 16.1792 9.36982 16.1097 9.43934C16.0401 9.50886 15.9576 9.56399 15.8667 9.60156C15.7759 9.63913 15.6785 9.6584 15.5802 9.65828Z" fill="#3D3D3D"/>
</svg>
