<svg width="80" height="80" viewBox="0 0 80 80" fill="none" xmlns="http://www.w3.org/2000/svg">
<rect width="80" height="80" fill="#4FB400"/>
<path d="M44.6175 38.2889C44.5751 38.2889 44.5366 38.2889 44.4942 38.2889V38.285C44.4518 38.285 44.4056 38.285 44.3594 38.285C40.6886 38.2889 37.7111 35.3114 37.7111 31.6406C37.7111 31.5944 37.7111 31.552 37.7111 31.5058H37.7073C37.7073 31.4557 37.7073 31.4056 37.7073 31.3556C37.7111 27.8465 34.8646 25 31.3556 25C27.8465 25 25 27.8465 25 31.3556C25 34.8646 27.8465 37.7111 31.3556 37.7111C31.4172 37.7111 31.4788 37.7111 31.5443 37.7073C31.5905 37.7073 31.6329 37.7073 31.6791 37.7073C35.1843 37.7073 38.0578 40.419 38.3081 43.8587C38.2773 44.1167 38.2581 44.3787 38.2581 44.6444C38.2581 48.1535 41.1046 51 44.6136 51C48.1227 51 50.9692 48.1535 50.9692 44.6444C50.9692 41.1354 48.1265 38.2889 44.6175 38.2889Z" fill="white"/>
<path d="M46.6663 33.6667C49.0596 33.6667 50.9997 31.7266 50.9997 29.3333C50.9997 26.9401 49.0596 25 46.6663 25C44.2731 25 42.333 26.9401 42.333 29.3333C42.333 31.7266 44.2731 33.6667 46.6663 33.6667Z" fill="white"/>
</svg>
