<svg width="117" height="32" viewBox="0 0 117 32" fill="none" xmlns="http://www.w3.org/2000/svg">
<path fill-rule="evenodd" clip-rule="evenodd" d="M4.68293 0H111.61C114.196 0 116.293 2.09639 116.293 4.68293V27.3171C116.293 29.9036 114.196 32 111.61 32H4.68293C2.09639 32 0 29.9036 0 27.3171V4.68293C0 2.09639 2.09639 0 4.68293 0Z" fill="#32364E"/>
<path fill-rule="evenodd" clip-rule="evenodd" d="M55.7291 20.7806H54.588L55.4715 18.5983L53.7131 14.1613H54.919L56.0241 17.181L57.1379 14.1613H58.3437L55.7291 20.7806ZM51.3467 18.8746C50.951 18.8746 50.5459 18.7279 50.1775 18.4422V18.7646H48.9997V12.1453H50.1775V14.475C50.5459 14.1987 50.951 14.0512 51.3467 14.0512C52.5806 14.0512 53.4275 15.0456 53.4275 16.4629C53.4275 17.8803 52.5806 18.8746 51.3467 18.8746ZM51.0985 15.0635C50.7761 15.0635 50.4538 15.2017 50.1775 15.4779V17.4479C50.4538 17.7242 50.7761 17.8623 51.0985 17.8623C51.7611 17.8623 52.2216 17.2918 52.2216 16.4629C52.2216 15.6348 51.7611 15.0635 51.0985 15.0635ZM44.2302 18.4422C43.8712 18.7279 43.4661 18.8746 43.061 18.8746C41.8364 18.8746 40.981 17.8803 40.981 16.4629C40.981 15.0456 41.8364 14.0512 43.061 14.0512C43.4661 14.0512 43.8712 14.1987 44.2302 14.475V12.1453H45.4181V18.7646H44.2302V18.4422ZM44.2302 15.4779C43.9632 15.2017 43.6409 15.0635 43.3186 15.0635C42.6466 15.0635 42.1869 15.6348 42.1869 16.4629C42.1869 17.2918 42.6466 17.8623 43.3186 17.8623C43.6409 17.8623 43.9632 17.7242 44.2302 17.4479V15.4779ZM37.2152 16.7853C37.2885 17.4846 37.8411 17.9638 38.6146 17.9638C39.0376 17.9638 39.5074 17.8069 39.9859 17.5306V18.5156C39.4614 18.7552 38.9369 18.8746 38.421 18.8746C37.031 18.8746 36.0553 17.8623 36.0553 16.4262C36.0553 15.0362 37.013 14.0512 38.3289 14.0512C39.5348 14.0512 40.3543 14.9995 40.3543 16.3529C40.3543 16.4817 40.3543 16.6284 40.3355 16.7853H37.2152ZM38.2829 14.9628C37.7123 14.9628 37.2706 15.3858 37.2152 16.0212H39.2218C39.1851 15.3952 38.8073 14.9628 38.2829 14.9628ZM34.1127 15.6895V18.7646H32.9342V14.1613H34.1127V14.6217C34.4436 14.2534 34.8487 14.0512 35.2444 14.0512C35.374 14.0512 35.5028 14.0606 35.6315 14.0973V15.147C35.5028 15.1096 35.3553 15.0916 35.2171 15.0916C34.8308 15.0916 34.4163 15.3031 34.1127 15.6895ZM28.8553 16.7853C28.9295 17.4846 29.4813 17.9638 30.2548 17.9638C30.6786 17.9638 31.1476 17.8069 31.6269 17.5306V18.5156C31.1016 18.7552 30.5771 18.8746 30.0612 18.8746C28.6712 18.8746 27.6955 17.8623 27.6955 16.4262C27.6955 15.0362 28.6532 14.0512 29.9691 14.0512C31.1757 14.0512 31.9945 14.9995 31.9945 16.3529C31.9945 16.4817 31.9945 16.6284 31.9765 16.7853H28.8553ZM29.9231 14.9628C29.3525 14.9628 28.9108 15.3858 28.8553 16.0212H30.8628C30.8253 15.3952 30.4483 14.9628 29.9231 14.9628ZM24.7398 18.7646L23.8009 15.6348L22.8713 18.7646H21.8122L20.2294 14.1613H21.4072L22.3375 17.2918L23.2671 14.1613H24.3348L25.2643 17.2918L26.1947 14.1613H27.3724L25.7982 18.7646H24.7398ZM17.5406 18.8746C16.1506 18.8746 15.1656 17.8717 15.1656 16.4629C15.1656 15.0456 16.1506 14.0512 17.5406 14.0512C18.9307 14.0512 19.9063 15.0456 19.9063 16.4629C19.9063 17.8717 18.9307 18.8746 17.5406 18.8746ZM17.5406 15.0362C16.8499 15.0362 16.3714 15.6161 16.3714 16.4629C16.3714 17.3097 16.8499 17.8897 17.5406 17.8897C18.222 17.8897 18.7004 17.3097 18.7004 16.4629C18.7004 15.6161 18.222 15.0362 17.5406 15.0362ZM12.3668 16.491H11.3076V18.7646H10.1299V12.4309H12.3668C13.6553 12.4309 14.5755 13.2684 14.5755 14.4657C14.5755 15.6621 13.6553 16.491 12.3668 16.491ZM12.2005 13.3886H11.3076V15.5334H12.2005C12.8819 15.5334 13.3603 15.101 13.3603 14.4657C13.3603 13.821 12.8819 13.3886 12.2005 13.3886ZM106.792 17.0678H101.133C101.262 18.4227 102.255 18.8216 103.381 18.8216C104.529 18.8216 105.433 18.5804 106.221 18.1823V20.5113C105.435 20.946 104.399 21.2606 103.017 21.2606C100.201 21.2606 98.2282 19.4975 98.2282 16.011C98.2282 13.067 99.9016 10.7287 102.652 10.7287C105.398 10.7287 106.831 13.0662 106.831 16.0266C106.831 16.306 106.805 16.9117 106.792 17.0678ZM102.633 13.0858C101.911 13.0858 101.107 13.6313 101.107 14.9339H104.096C104.096 13.6329 103.344 13.0858 102.633 13.0858ZM93.6436 21.2606C92.6321 21.2606 92.014 20.8337 91.5988 20.5293L91.5925 23.8003L88.7024 24.4153L88.7008 10.9215H91.2468L91.3966 11.6356C91.797 11.2617 92.5283 10.7287 93.6616 10.7287C95.6916 10.7287 97.6038 12.5574 97.6038 15.9228C97.6038 19.5966 95.7119 21.2606 93.6436 21.2606ZM92.9709 13.2895C92.3067 13.2895 91.8915 13.5322 91.5902 13.8623L91.6074 18.1581C91.8876 18.4617 92.2926 18.7068 92.9709 18.7068C94.0394 18.7068 94.7558 17.5431 94.7558 15.9868C94.7558 14.4742 94.0284 13.2895 92.9709 13.2895ZM84.6181 10.9215H87.5199V21.0537H84.6181V10.9215ZM84.6181 7.68634L87.5199 7.06897V9.4237L84.6181 10.0403V7.68634ZM81.6202 14.1847V21.0537H78.7309V10.9215H81.23L81.4118 11.7761C82.0877 10.532 83.4396 10.7841 83.8243 10.9222V13.579C83.4567 13.4604 82.3032 13.2871 81.6202 14.1847ZM75.5192 17.4986C75.5192 19.2024 77.3432 18.6725 77.7139 18.5242V20.8774C77.3283 21.0889 76.6298 21.2606 75.6846 21.2606C73.9691 21.2606 72.6821 19.997 72.6821 18.2854L72.6946 9.01082L75.5168 8.41141L75.5192 10.9215H77.7147V13.3862H75.5192V17.4986ZM72.0116 17.9919C72.0116 20.0727 70.3554 21.2606 67.9515 21.2606C66.9549 21.2606 65.8653 21.067 64.7906 20.6042V17.8444C65.7607 18.372 66.997 18.7677 67.9547 18.7677C68.5993 18.7677 69.0637 18.5944 69.0637 18.0606C69.0637 16.6807 64.6688 17.2005 64.6688 13.9997C64.6688 11.9533 66.2321 10.7287 68.5767 10.7287C69.5344 10.7287 70.492 10.8762 71.4497 11.2578V13.9802C70.5701 13.5057 69.454 13.2364 68.5744 13.2364C67.9687 13.2364 67.5925 13.4112 67.5925 13.8631C67.5925 15.1634 72.0116 14.5453 72.0116 17.9919Z" fill="white"/>
</svg>
