<svg width="24" height="24" viewBox="0 0 24 24" fill="none" xmlns="http://www.w3.org/2000/svg">
<path d="M18.7078 8.53281C18.6281 8.236 18.4719 7.96532 18.2547 7.74787C18.0375 7.53042 17.767 7.37382 17.4703 7.29375C16.3781 7 12 7 12 7C12 7 7.62187 7 6.52969 7.29219C6.23284 7.372 5.96223 7.52851 5.74501 7.746C5.52779 7.96349 5.37162 8.23431 5.29219 8.53125C5 9.625 5 11.9062 5 11.9062C5 11.9062 5 14.1875 5.29219 15.2797C5.45312 15.8828 5.92812 16.3578 6.52969 16.5188C7.62187 16.8125 12 16.8125 12 16.8125C12 16.8125 16.3781 16.8125 17.4703 16.5188C18.0734 16.3578 18.5469 15.8828 18.7078 15.2797C19 14.1875 19 11.9062 19 11.9062C19 11.9062 19 9.625 18.7078 8.53281ZM10.6094 14V9.8125L14.2344 11.8906L10.6094 14Z" fill="#3D3D3D"/>
</svg>
